<svg width="50" height="50" viewBox="0 0 50 50" fill="none" xmlns="http://www.w3.org/2000/svg">
<g clip-path="url(#clip0)">
<path d="M45.3125 25C45.3125 35.4297 37.4609 44.0156 27.3438 45.1797C26.5781 45.2656 25.7891 45.3125 25 45.3125C23.6641 45.3125 22.3594 45.1797 21.0938 44.9297C11.7422 43.1172 4.6875 34.8828 4.6875 25C4.6875 13.7812 13.7812 4.6875 25 4.6875C36.2188 4.6875 45.3125 13.7812 45.3125 25Z" fill="url(#paint0_linear)"/>
<path d="M33.4375 28.1641L32.8438 29.7266C32.5 30.6406 31.6094 31.25 30.6172 31.25H27.3438V45.1797C26.5781 45.2656 25.7891 45.3125 25 45.3125C23.6641 45.3125 22.3594 45.1797 21.0938 44.9297V31.25H18.7891C17.4687 31.25 16.4062 30.2031 16.4062 28.9062V27.3438C16.4062 26.0469 17.4687 25 18.7891 25H21.0938V20.3125C21.0938 16.0078 24.6016 12.5 28.9062 12.5H31.25C32.9766 12.5 34.375 13.8984 34.375 15.625C34.375 17.3516 32.9766 18.75 31.25 18.75H28.9062C28.0469 18.75 27.3438 19.4531 27.3438 20.3125V25H31.2109C32.875 25 34.0234 26.6328 33.4375 28.1641Z" fill="white"/>
</g>
<defs>
<linearGradient id="paint0_linear" x1="25" y1="54.1719" x2="25" y2="5.29453" gradientUnits="userSpaceOnUse">
<stop stop-color="#155CDE"/>
<stop offset="0.278" stop-color="#1F7FE5"/>
<stop offset="0.569" stop-color="#279CEB"/>
<stop offset="0.82" stop-color="#2CAFEF"/>
<stop offset="1" stop-color="#2EB5F0"/>
</linearGradient>
<clipPath id="clip0">
<rect width="50" height="50" fill="white"/>
</clipPath>
</defs>
</svg>
